 <svg  version="1.0" xmlns="http://www.w3.org/2000/svg"  width="810.000000pt" height="810.000000pt" viewBox="0 0 810.000000 810.000000"  preserveAspectRatio="xMidYMid meet">  <g transform="translate(0.000000,810.000000) scale(0.100000,-0.100000)" fill="#000000" stroke="none"> <path d="M3815 8034 c-22 -2 -92 -9 -155 -14 -921 -85 -1815 -515 -2470 -1186 -647 -663 -1031 -1483 -1132 -2419 -17 -156 -17 -624 0 -780 57 -527 195 -990 431 -1451 385 -750 1011 -1368 1768 -1747 953 -478 2063 -555 3078 -215 104 35 247 89 310 118 513 234 880 484 1245 849 379 379 652 785 862 1281 187 440 282 858 309 1353 59 1116 -350 2201 -1133 3003 -655 671 -1491 1079 -2431 1190 -124 14 -593 27 -682 18z m1916 -1879 c119 -35 157 -48 224 -81 118 -58 195 -114 314 -228 73 -72 201 -224 201 -241 0 -4 11 -21 24 -38 14 -18 30 -43 35 -57 6 -14 20 -38 31 -55 11 -16 22 -37 26 -45 3 -8 12 -30 20 -47 8 -18 21 -50 30 -70 9 -21 23 -51 30 -66 8 -16 14 -35 14 -42 0 -8 6 -29 14 -47 8 -18 21 -58 29 -88 42 -147 49 -179 67 -290 6 -36 16 -85 21 -110 30 -127 46 -588 30 -819 -12 -172 -35 -363 -52 -441 -6 -25 -14 -65 -18 -90 -12 -69 -56 -229 -77 -278 -8 -18 -14 -39 -14 -47 0 -14 -20 -66 -46 -118 -8 -16 -14 -33 -14 -39 0 -13 -88 -188 -104 -208 -7 -8 -16 -23 -19 -33 -15 -42 -132 -197 -204 -273 -79 -82 -185 -176 -213 -187 -20 -9 -54 -30 -60 -38 -3 -4 -36 -21 -73 -38 -153 -71 -325 -102 -454 -81 -116 18 -204 49 -291 101 -47 28 -161 120 -198 160 -38 43 -184 236 -184 245 0 3 -12 23 -27 43 -16 20 -34 45 -40 56 -28 46 -249 407 -258 423 -59 100 -195 271 -281 354 -88 85 -158 134 -249 177 -105 50 -134 59 -235 76 -244 42 -462 -7 -645 -144 -89 -67 -305 -290 -305 -316 0 -4 -9 -17 -20 -29 -21 -23 -130 -175 -130 -181 0 -17 -170 -226 -239 -295 -160 -159 -310 -208 -505 -164 -116 27 -198 71 -315 169 -23 20 -141 169 -141 179 0 3 -13 25 -30 49 -16 25 -30 50 -30 55 0 6 -8 25 -17 44 -9 18 -22 45 -30 60 -7 14 -13 33 -13 42 0 8 -6 30 -14 48 -20 46 -44 134 -86 313 -6 28 -16 86 -21 130 -4 44 -13 109 -19 145 -13 85 -13 597 1 680 5 36 14 94 18 130 5 36 14 85 20 110 7 25 19 72 28 105 21 83 37 124 97 243 67 136 63 129 124 200 82 94 218 177 327 198 53 11 228 10 290 0 62 -11 214 -84 269 -131 88 -73 189 -178 256 -265 78 -100 197 -239 269 -314 75 -77 222 -196 244 -196 6 0 18 -6 26 -14 9 -7 52 -27 96 -44 105 -41 274 -64 370 -52 39 5 95 12 125 16 30 4 67 13 82 20 15 8 34 14 42 14 31 0 153 65 226 120 89 68 260 248 260 275 0 4 14 24 30 45 17 21 30 41 30 46 0 4 6 15 14 23 22 26 62 101 196 366 69 138 137 268 151 290 13 23 29 50 36 60 7 11 22 38 33 59 12 22 41 65 66 97 24 32 44 61 44 66 0 5 48 56 108 113 85 84 123 113 184 143 42 20 83 37 91 37 8 0 30 7 48 15 48 20 288 20 360 0z"/> </g> </svg> 